<mxfile host="app.diagrams.net" agent="Mozilla/5.0 (Macintosh; Intel Mac OS X 10_15_7) AppleWebKit/537.36 (KHTML, like Gecko) Chrome/135.0.0.0 Safari/537.36" version="26.0.15">
  <diagram name="第 1 页" id="jCKyARXtS3_KU_H70kB-">
    <mxGraphModel dx="663" dy="406" grid="1" gridSize="10" guides="1" tooltips="1" connect="1" arrows="1" fold="1" page="1" pageScale="1" pageWidth="827" pageHeight="1169" math="0" shadow="0">
      <root>
        <mxCell id="0" />
        <mxCell id="1" parent="0" />
        <mxCell id="vybOab_Kj2c5safNkpu3-1" style="edgeStyle=orthogonalEdgeStyle;rounded=0;orthogonalLoop=1;jettySize=auto;html=1;exitX=0.5;exitY=1;exitDx=0;exitDy=0;endArrow=none;endFill=0;" edge="1" parent="1" source="vybOab_Kj2c5safNkpu3-4">
          <mxGeometry relative="1" as="geometry">
            <mxPoint x="528" y="1760" as="targetPoint" />
          </mxGeometry>
        </mxCell>
        <mxCell id="vybOab_Kj2c5safNkpu3-4" value="用户" style="rounded=1;whiteSpace=wrap;html=1;" vertex="1" parent="1">
          <mxGeometry x="483" y="480" width="90" height="30" as="geometry" />
        </mxCell>
        <mxCell id="vybOab_Kj2c5safNkpu3-5" style="edgeStyle=orthogonalEdgeStyle;rounded=0;orthogonalLoop=1;jettySize=auto;html=1;endArrow=none;endFill=0;" edge="1" parent="1" source="vybOab_Kj2c5safNkpu3-6">
          <mxGeometry relative="1" as="geometry">
            <mxPoint x="752" y="1760" as="targetPoint" />
            <Array as="points">
              <mxPoint x="752" y="1160" />
              <mxPoint x="752" y="1160" />
              <mxPoint x="752" y="1518" />
            </Array>
          </mxGeometry>
        </mxCell>
        <mxCell id="vybOab_Kj2c5safNkpu3-6" value="业务系统" style="rounded=1;whiteSpace=wrap;html=1;" vertex="1" parent="1">
          <mxGeometry x="706.5" y="480" width="90" height="30" as="geometry" />
        </mxCell>
        <mxCell id="vybOab_Kj2c5safNkpu3-7" style="edgeStyle=orthogonalEdgeStyle;rounded=0;orthogonalLoop=1;jettySize=auto;html=1;endArrow=none;endFill=0;" edge="1" parent="1" source="vybOab_Kj2c5safNkpu3-8">
          <mxGeometry relative="1" as="geometry">
            <mxPoint x="968" y="1760" as="targetPoint" />
          </mxGeometry>
        </mxCell>
        <mxCell id="vybOab_Kj2c5safNkpu3-8" value="支付中泰" style="rounded=1;whiteSpace=wrap;html=1;" vertex="1" parent="1">
          <mxGeometry x="923" y="480" width="90" height="30" as="geometry" />
        </mxCell>
        <mxCell id="vybOab_Kj2c5safNkpu3-9" style="edgeStyle=orthogonalEdgeStyle;rounded=0;orthogonalLoop=1;jettySize=auto;html=1;endArrow=none;endFill=0;" edge="1" parent="1" source="vybOab_Kj2c5safNkpu3-10">
          <mxGeometry relative="1" as="geometry">
            <mxPoint x="1188" y="1760" as="targetPoint" />
          </mxGeometry>
        </mxCell>
        <mxCell id="vybOab_Kj2c5safNkpu3-10" value="第三方支付渠道" style="rounded=1;whiteSpace=wrap;html=1;" vertex="1" parent="1">
          <mxGeometry x="1130" y="480" width="116" height="30" as="geometry" />
        </mxCell>
        <mxCell id="vybOab_Kj2c5safNkpu3-11" value="" style="endArrow=classic;html=1;rounded=0;" edge="1" parent="1">
          <mxGeometry width="50" height="50" relative="1" as="geometry">
            <mxPoint x="528" y="570" as="sourcePoint" />
            <mxPoint x="750" y="570" as="targetPoint" />
          </mxGeometry>
        </mxCell>
        <mxCell id="vybOab_Kj2c5safNkpu3-12" value="发起支付请求&lt;div&gt;（携带单号）&lt;/div&gt;" style="edgeLabel;html=1;align=center;verticalAlign=middle;resizable=0;points=[];" vertex="1" connectable="0" parent="vybOab_Kj2c5safNkpu3-11">
          <mxGeometry x="-0.3204" y="-1" relative="1" as="geometry">
            <mxPoint x="32" y="-1" as="offset" />
          </mxGeometry>
        </mxCell>
        <mxCell id="vybOab_Kj2c5safNkpu3-13" value="" style="endArrow=classic;html=1;rounded=0;dashed=1;dashPattern=8 8;" edge="1" parent="1">
          <mxGeometry width="50" height="50" relative="1" as="geometry">
            <mxPoint x="750" y="613" as="sourcePoint" />
            <mxPoint x="530" y="613" as="targetPoint" />
          </mxGeometry>
        </mxCell>
        <mxCell id="vybOab_Kj2c5safNkpu3-14" value="返回订单信息&lt;div&gt;（单号 / 订单 / 订单明细等）&lt;/div&gt;" style="edgeLabel;html=1;align=center;verticalAlign=middle;resizable=0;points=[];" vertex="1" connectable="0" parent="vybOab_Kj2c5safNkpu3-13">
          <mxGeometry x="-0.3204" y="-1" relative="1" as="geometry">
            <mxPoint x="-28" as="offset" />
          </mxGeometry>
        </mxCell>
        <mxCell id="vybOab_Kj2c5safNkpu3-15" value="" style="endArrow=classic;html=1;rounded=0;" edge="1" parent="1">
          <mxGeometry width="50" height="50" relative="1" as="geometry">
            <mxPoint x="760" y="580" as="sourcePoint" />
            <mxPoint x="760" y="607" as="targetPoint" />
            <Array as="points">
              <mxPoint x="790" y="580" />
              <mxPoint x="790" y="597" />
              <mxPoint x="790" y="607" />
              <mxPoint x="780" y="607" />
            </Array>
          </mxGeometry>
        </mxCell>
        <mxCell id="vybOab_Kj2c5safNkpu3-16" value="查询订单信息" style="edgeLabel;html=1;align=center;verticalAlign=middle;resizable=0;points=[];" vertex="1" connectable="0" parent="vybOab_Kj2c5safNkpu3-15">
          <mxGeometry x="-0.0168" y="-1" relative="1" as="geometry">
            <mxPoint x="42" y="1" as="offset" />
          </mxGeometry>
        </mxCell>
        <mxCell id="vybOab_Kj2c5safNkpu3-19" value="" style="endArrow=classic;html=1;rounded=0;" edge="1" parent="1">
          <mxGeometry width="50" height="50" relative="1" as="geometry">
            <mxPoint x="1200" y="680" as="sourcePoint" />
            <mxPoint x="1200" y="704" as="targetPoint" />
            <Array as="points">
              <mxPoint x="1230" y="680" />
              <mxPoint x="1230" y="697" />
              <mxPoint x="1230" y="704" />
              <mxPoint x="1220" y="704" />
            </Array>
          </mxGeometry>
        </mxCell>
        <mxCell id="vybOab_Kj2c5safNkpu3-20" value="Cookie 失效，需要登录" style="edgeLabel;html=1;align=center;verticalAlign=middle;resizable=0;points=[];" vertex="1" connectable="0" parent="vybOab_Kj2c5safNkpu3-19">
          <mxGeometry x="-0.0168" y="-1" relative="1" as="geometry">
            <mxPoint x="68" as="offset" />
          </mxGeometry>
        </mxCell>
        <mxCell id="vybOab_Kj2c5safNkpu3-25" value="" style="endArrow=classic;html=1;rounded=0;dashed=1;dashPattern=8 8;" edge="1" parent="1">
          <mxGeometry width="50" height="50" relative="1" as="geometry">
            <mxPoint x="1188" y="811" as="sourcePoint" />
            <mxPoint x="528" y="811" as="targetPoint" />
          </mxGeometry>
        </mxCell>
        <mxCell id="vybOab_Kj2c5safNkpu3-26" value="URL 带 code 重定向到系统A Callback&lt;div&gt;种 SSO 域 Cookie&lt;/div&gt;" style="edgeLabel;html=1;align=center;verticalAlign=middle;resizable=0;points=[];" vertex="1" connectable="0" parent="vybOab_Kj2c5safNkpu3-25">
          <mxGeometry x="-0.3204" y="-1" relative="1" as="geometry">
            <mxPoint x="-325" y="1" as="offset" />
          </mxGeometry>
        </mxCell>
        <mxCell id="vybOab_Kj2c5safNkpu3-27" value="" style="endArrow=classic;html=1;rounded=0;" edge="1" parent="1">
          <mxGeometry width="50" height="50" relative="1" as="geometry">
            <mxPoint x="1203" y="781" as="sourcePoint" />
            <mxPoint x="1203" y="804" as="targetPoint" />
            <Array as="points">
              <mxPoint x="1233" y="781" />
              <mxPoint x="1233" y="798" />
              <mxPoint x="1233" y="804" />
              <mxPoint x="1230" y="804" />
              <mxPoint x="1223" y="804" />
            </Array>
          </mxGeometry>
        </mxCell>
        <mxCell id="vybOab_Kj2c5safNkpu3-28" value="校验用户名密码" style="edgeLabel;html=1;align=center;verticalAlign=middle;resizable=0;points=[];" vertex="1" connectable="0" parent="vybOab_Kj2c5safNkpu3-27">
          <mxGeometry x="-0.0168" y="-1" relative="1" as="geometry">
            <mxPoint x="48" as="offset" />
          </mxGeometry>
        </mxCell>
        <mxCell id="vybOab_Kj2c5safNkpu3-29" value="" style="endArrow=classic;html=1;rounded=0;" edge="1" parent="1">
          <mxGeometry width="50" height="50" relative="1" as="geometry">
            <mxPoint x="528" y="1201" as="sourcePoint" />
            <mxPoint x="963" y="1200" as="targetPoint" />
          </mxGeometry>
        </mxCell>
        <mxCell id="vybOab_Kj2c5safNkpu3-30" value="访问系统B" style="edgeLabel;html=1;align=center;verticalAlign=middle;resizable=0;points=[];" vertex="1" connectable="0" parent="vybOab_Kj2c5safNkpu3-29">
          <mxGeometry x="-0.5172" relative="1" as="geometry">
            <mxPoint x="227" as="offset" />
          </mxGeometry>
        </mxCell>
        <mxCell id="vybOab_Kj2c5safNkpu3-31" value="" style="endArrow=classic;html=1;rounded=0;dashed=1;dashPattern=8 8;" edge="1" parent="1">
          <mxGeometry width="50" height="50" relative="1" as="geometry">
            <mxPoint x="963" y="1245" as="sourcePoint" />
            <mxPoint x="531" y="1245" as="targetPoint" />
          </mxGeometry>
        </mxCell>
        <mxCell id="vybOab_Kj2c5safNkpu3-32" value="需要登录" style="edgeLabel;html=1;align=center;verticalAlign=middle;resizable=0;points=[];" vertex="1" connectable="0" parent="vybOab_Kj2c5safNkpu3-31">
          <mxGeometry x="-0.3204" y="-1" relative="1" as="geometry">
            <mxPoint x="46" y="1" as="offset" />
          </mxGeometry>
        </mxCell>
        <mxCell id="vybOab_Kj2c5safNkpu3-33" value="" style="endArrow=classic;html=1;rounded=0;" edge="1" parent="1">
          <mxGeometry width="50" height="50" relative="1" as="geometry">
            <mxPoint x="528" y="873" as="sourcePoint" />
            <mxPoint x="750" y="873" as="targetPoint" />
          </mxGeometry>
        </mxCell>
        <mxCell id="vybOab_Kj2c5safNkpu3-34" value="访问系统A Callback，带 code" style="edgeLabel;html=1;align=center;verticalAlign=middle;resizable=0;points=[];" vertex="1" connectable="0" parent="vybOab_Kj2c5safNkpu3-33">
          <mxGeometry x="-0.3204" y="-1" relative="1" as="geometry">
            <mxPoint x="32" y="-1" as="offset" />
          </mxGeometry>
        </mxCell>
        <mxCell id="vybOab_Kj2c5safNkpu3-35" value="" style="endArrow=classic;html=1;rounded=0;" edge="1" parent="1">
          <mxGeometry width="50" height="50" relative="1" as="geometry">
            <mxPoint x="752" y="890" as="sourcePoint" />
            <mxPoint x="1184" y="890" as="targetPoint" />
          </mxGeometry>
        </mxCell>
        <mxCell id="vybOab_Kj2c5safNkpu3-36" value="校验 code" style="edgeLabel;html=1;align=center;verticalAlign=middle;resizable=0;points=[];" vertex="1" connectable="0" parent="vybOab_Kj2c5safNkpu3-35">
          <mxGeometry x="-0.3204" y="-1" relative="1" as="geometry">
            <mxPoint x="-33" y="-1" as="offset" />
          </mxGeometry>
        </mxCell>
        <mxCell id="vybOab_Kj2c5safNkpu3-37" value="" style="endArrow=classic;html=1;rounded=0;dashed=1;dashPattern=8 8;" edge="1" parent="1">
          <mxGeometry width="50" height="50" relative="1" as="geometry">
            <mxPoint x="1188" y="925" as="sourcePoint" />
            <mxPoint x="756" y="925" as="targetPoint" />
          </mxGeometry>
        </mxCell>
        <mxCell id="vybOab_Kj2c5safNkpu3-38" value="换取 token" style="edgeLabel;html=1;align=center;verticalAlign=middle;resizable=0;points=[];" vertex="1" connectable="0" parent="vybOab_Kj2c5safNkpu3-37">
          <mxGeometry x="-0.3204" y="-1" relative="1" as="geometry">
            <mxPoint x="-175" as="offset" />
          </mxGeometry>
        </mxCell>
        <mxCell id="vybOab_Kj2c5safNkpu3-39" value="" style="endArrow=classic;html=1;rounded=0;dashed=1;dashPattern=8 8;" edge="1" parent="1">
          <mxGeometry width="50" height="50" relative="1" as="geometry">
            <mxPoint x="750" y="950" as="sourcePoint" />
            <mxPoint x="530" y="950" as="targetPoint" />
          </mxGeometry>
        </mxCell>
        <mxCell id="vybOab_Kj2c5safNkpu3-40" value="重定向到系统A原页面&lt;div&gt;种A域 cookie（token）&lt;/div&gt;" style="edgeLabel;html=1;align=center;verticalAlign=middle;resizable=0;points=[];" vertex="1" connectable="0" parent="vybOab_Kj2c5safNkpu3-39">
          <mxGeometry x="-0.3204" y="-1" relative="1" as="geometry">
            <mxPoint x="-38" as="offset" />
          </mxGeometry>
        </mxCell>
        <mxCell id="vybOab_Kj2c5safNkpu3-41" value="" style="endArrow=classic;html=1;rounded=0;" edge="1" parent="1">
          <mxGeometry width="50" height="50" relative="1" as="geometry">
            <mxPoint x="1203" y="898" as="sourcePoint" />
            <mxPoint x="1203" y="921" as="targetPoint" />
            <Array as="points">
              <mxPoint x="1233" y="898" />
              <mxPoint x="1233" y="915" />
              <mxPoint x="1233" y="921" />
              <mxPoint x="1230" y="921" />
              <mxPoint x="1223" y="921" />
            </Array>
          </mxGeometry>
        </mxCell>
        <mxCell id="vybOab_Kj2c5safNkpu3-42" value="校验 code 通过" style="edgeLabel;html=1;align=center;verticalAlign=middle;resizable=0;points=[];" vertex="1" connectable="0" parent="vybOab_Kj2c5safNkpu3-41">
          <mxGeometry x="-0.0168" y="-1" relative="1" as="geometry">
            <mxPoint x="48" as="offset" />
          </mxGeometry>
        </mxCell>
        <mxCell id="vybOab_Kj2c5safNkpu3-43" value="" style="endArrow=classic;html=1;rounded=0;" edge="1" parent="1">
          <mxGeometry width="50" height="50" relative="1" as="geometry">
            <mxPoint x="528" y="1010" as="sourcePoint" />
            <mxPoint x="750" y="1010" as="targetPoint" />
          </mxGeometry>
        </mxCell>
        <mxCell id="vybOab_Kj2c5safNkpu3-44" value="访问系统A，带 A 域 cookie（token）" style="edgeLabel;html=1;align=center;verticalAlign=middle;resizable=0;points=[];" vertex="1" connectable="0" parent="vybOab_Kj2c5safNkpu3-43">
          <mxGeometry x="-0.3204" y="-1" relative="1" as="geometry">
            <mxPoint x="32" y="-1" as="offset" />
          </mxGeometry>
        </mxCell>
        <mxCell id="vybOab_Kj2c5safNkpu3-45" value="" style="endArrow=classic;html=1;rounded=0;" edge="1" parent="1">
          <mxGeometry width="50" height="50" relative="1" as="geometry">
            <mxPoint x="752" y="1025" as="sourcePoint" />
            <mxPoint x="1184" y="1025" as="targetPoint" />
          </mxGeometry>
        </mxCell>
        <mxCell id="vybOab_Kj2c5safNkpu3-46" value="校验 token" style="edgeLabel;html=1;align=center;verticalAlign=middle;resizable=0;points=[];" vertex="1" connectable="0" parent="vybOab_Kj2c5safNkpu3-45">
          <mxGeometry x="-0.3204" y="-1" relative="1" as="geometry">
            <mxPoint x="-33" y="-1" as="offset" />
          </mxGeometry>
        </mxCell>
        <mxCell id="vybOab_Kj2c5safNkpu3-47" value="" style="endArrow=classic;html=1;rounded=0;dashed=1;dashPattern=8 8;" edge="1" parent="1">
          <mxGeometry width="50" height="50" relative="1" as="geometry">
            <mxPoint x="1188" y="1060" as="sourcePoint" />
            <mxPoint x="756" y="1060" as="targetPoint" />
          </mxGeometry>
        </mxCell>
        <mxCell id="vybOab_Kj2c5safNkpu3-48" value="" style="endArrow=classic;html=1;rounded=0;" edge="1" parent="1">
          <mxGeometry width="50" height="50" relative="1" as="geometry">
            <mxPoint x="1203" y="1033" as="sourcePoint" />
            <mxPoint x="1203" y="1056" as="targetPoint" />
            <Array as="points">
              <mxPoint x="1233" y="1033" />
              <mxPoint x="1233" y="1050" />
              <mxPoint x="1233" y="1056" />
              <mxPoint x="1230" y="1056" />
              <mxPoint x="1223" y="1056" />
            </Array>
          </mxGeometry>
        </mxCell>
        <mxCell id="vybOab_Kj2c5safNkpu3-49" value="校验 token&amp;nbsp;通过" style="edgeLabel;html=1;align=center;verticalAlign=middle;resizable=0;points=[];" vertex="1" connectable="0" parent="vybOab_Kj2c5safNkpu3-48">
          <mxGeometry x="-0.0168" y="-1" relative="1" as="geometry">
            <mxPoint x="48" as="offset" />
          </mxGeometry>
        </mxCell>
        <mxCell id="vybOab_Kj2c5safNkpu3-50" value="" style="endArrow=classic;html=1;rounded=0;" edge="1" parent="1">
          <mxGeometry width="50" height="50" relative="1" as="geometry">
            <mxPoint x="758" y="1075" as="sourcePoint" />
            <mxPoint x="758" y="1115" as="targetPoint" />
            <Array as="points">
              <mxPoint x="778" y="1075" />
              <mxPoint x="778" y="1095" />
              <mxPoint x="778" y="1115" />
            </Array>
          </mxGeometry>
        </mxCell>
        <mxCell id="vybOab_Kj2c5safNkpu3-51" value="凭证有效，处理业务" style="edgeLabel;html=1;align=center;verticalAlign=middle;resizable=0;points=[];" vertex="1" connectable="0" parent="vybOab_Kj2c5safNkpu3-50">
          <mxGeometry x="-0.0168" y="-1" relative="1" as="geometry">
            <mxPoint x="58" as="offset" />
          </mxGeometry>
        </mxCell>
        <mxCell id="vybOab_Kj2c5safNkpu3-52" value="" style="endArrow=classic;html=1;rounded=0;dashed=1;dashPattern=8 8;" edge="1" parent="1">
          <mxGeometry width="50" height="50" relative="1" as="geometry">
            <mxPoint x="750" y="1132" as="sourcePoint" />
            <mxPoint x="530" y="1132" as="targetPoint" />
          </mxGeometry>
        </mxCell>
        <mxCell id="vybOab_Kj2c5safNkpu3-53" value="业务返回" style="edgeLabel;html=1;align=center;verticalAlign=middle;resizable=0;points=[];" vertex="1" connectable="0" parent="vybOab_Kj2c5safNkpu3-52">
          <mxGeometry x="-0.3204" y="-1" relative="1" as="geometry">
            <mxPoint x="-40" as="offset" />
          </mxGeometry>
        </mxCell>
        <mxCell id="vybOab_Kj2c5safNkpu3-56" value="" style="endArrow=classic;html=1;rounded=0;" edge="1" parent="1">
          <mxGeometry width="50" height="50" relative="1" as="geometry">
            <mxPoint x="983" y="1210" as="sourcePoint" />
            <mxPoint x="983" y="1237" as="targetPoint" />
            <Array as="points">
              <mxPoint x="1013" y="1210" />
              <mxPoint x="1013" y="1227" />
              <mxPoint x="1013" y="1237" />
              <mxPoint x="1003" y="1237" />
            </Array>
          </mxGeometry>
        </mxCell>
        <mxCell id="vybOab_Kj2c5safNkpu3-57" value="无 Session 或者 Session 失效&lt;div&gt;需要登录&lt;/div&gt;" style="edgeLabel;html=1;align=center;verticalAlign=middle;resizable=0;points=[];" vertex="1" connectable="0" parent="vybOab_Kj2c5safNkpu3-56">
          <mxGeometry x="-0.0168" y="-1" relative="1" as="geometry">
            <mxPoint x="81" as="offset" />
          </mxGeometry>
        </mxCell>
        <mxCell id="vybOab_Kj2c5safNkpu3-58" value="" style="endArrow=classic;html=1;rounded=0;" edge="1" parent="1">
          <mxGeometry width="50" height="50" relative="1" as="geometry">
            <mxPoint x="528" y="1304" as="sourcePoint" />
            <mxPoint x="1186" y="1304" as="targetPoint" />
          </mxGeometry>
        </mxCell>
        <mxCell id="vybOab_Kj2c5safNkpu3-59" value="访问 SSO，带 SSO 域 Cookie" style="edgeLabel;html=1;align=center;verticalAlign=middle;resizable=0;points=[];" vertex="1" connectable="0" parent="vybOab_Kj2c5safNkpu3-58">
          <mxGeometry x="-0.3204" y="-1" relative="1" as="geometry">
            <mxPoint x="108" y="-2" as="offset" />
          </mxGeometry>
        </mxCell>
        <mxCell id="vybOab_Kj2c5safNkpu3-60" value="" style="endArrow=classic;html=1;rounded=0;" edge="1" parent="1">
          <mxGeometry width="50" height="50" relative="1" as="geometry">
            <mxPoint x="1200" y="1314" as="sourcePoint" />
            <mxPoint x="1200" y="1338" as="targetPoint" />
            <Array as="points">
              <mxPoint x="1230" y="1314" />
              <mxPoint x="1230" y="1331" />
              <mxPoint x="1230" y="1338" />
              <mxPoint x="1220" y="1338" />
            </Array>
          </mxGeometry>
        </mxCell>
        <mxCell id="vybOab_Kj2c5safNkpu3-61" value="Cookie 有效" style="edgeLabel;html=1;align=center;verticalAlign=middle;resizable=0;points=[];" vertex="1" connectable="0" parent="vybOab_Kj2c5safNkpu3-60">
          <mxGeometry x="-0.0168" y="-1" relative="1" as="geometry">
            <mxPoint x="39" as="offset" />
          </mxGeometry>
        </mxCell>
        <mxCell id="vybOab_Kj2c5safNkpu3-62" value="" style="endArrow=classic;html=1;rounded=0;dashed=1;dashPattern=8 8;" edge="1" parent="1">
          <mxGeometry width="50" height="50" relative="1" as="geometry">
            <mxPoint x="1188" y="1343" as="sourcePoint" />
            <mxPoint x="528" y="1343" as="targetPoint" />
          </mxGeometry>
        </mxCell>
        <mxCell id="vybOab_Kj2c5safNkpu3-63" value="URL 带 code 重定向到系统B Callback&lt;div&gt;种 SSO 域 Cookie&lt;/div&gt;" style="edgeLabel;html=1;align=center;verticalAlign=middle;resizable=0;points=[];" vertex="1" connectable="0" parent="vybOab_Kj2c5safNkpu3-62">
          <mxGeometry x="-0.3204" y="-1" relative="1" as="geometry">
            <mxPoint x="-104" as="offset" />
          </mxGeometry>
        </mxCell>
        <mxCell id="vybOab_Kj2c5safNkpu3-64" value="" style="endArrow=classic;html=1;rounded=0;" edge="1" parent="1">
          <mxGeometry width="50" height="50" relative="1" as="geometry">
            <mxPoint x="528" y="1410" as="sourcePoint" />
            <mxPoint x="962" y="1410" as="targetPoint" />
          </mxGeometry>
        </mxCell>
        <mxCell id="vybOab_Kj2c5safNkpu3-65" value="访问系统B Callback，带 code" style="edgeLabel;html=1;align=center;verticalAlign=middle;resizable=0;points=[];" vertex="1" connectable="0" parent="vybOab_Kj2c5safNkpu3-64">
          <mxGeometry x="-0.3204" y="-1" relative="1" as="geometry">
            <mxPoint x="185" y="-1" as="offset" />
          </mxGeometry>
        </mxCell>
        <mxCell id="vybOab_Kj2c5safNkpu3-66" value="" style="endArrow=classic;html=1;rounded=0;" edge="1" parent="1">
          <mxGeometry width="50" height="50" relative="1" as="geometry">
            <mxPoint x="968" y="1427" as="sourcePoint" />
            <mxPoint x="1182" y="1427" as="targetPoint" />
          </mxGeometry>
        </mxCell>
        <mxCell id="vybOab_Kj2c5safNkpu3-67" value="校验 code" style="edgeLabel;html=1;align=center;verticalAlign=middle;resizable=0;points=[];" vertex="1" connectable="0" parent="vybOab_Kj2c5safNkpu3-66">
          <mxGeometry x="-0.3204" y="-1" relative="1" as="geometry">
            <mxPoint x="49" y="-1" as="offset" />
          </mxGeometry>
        </mxCell>
        <mxCell id="vybOab_Kj2c5safNkpu3-68" value="" style="endArrow=classic;html=1;rounded=0;dashed=1;dashPattern=8 8;" edge="1" parent="1">
          <mxGeometry width="50" height="50" relative="1" as="geometry">
            <mxPoint x="1188" y="1462" as="sourcePoint" />
            <mxPoint x="970" y="1462" as="targetPoint" />
          </mxGeometry>
        </mxCell>
        <mxCell id="vybOab_Kj2c5safNkpu3-69" value="换取 token" style="edgeLabel;html=1;align=center;verticalAlign=middle;resizable=0;points=[];" vertex="1" connectable="0" parent="vybOab_Kj2c5safNkpu3-68">
          <mxGeometry x="-0.3204" y="-1" relative="1" as="geometry">
            <mxPoint x="-24" as="offset" />
          </mxGeometry>
        </mxCell>
        <mxCell id="vybOab_Kj2c5safNkpu3-70" value="" style="endArrow=classic;html=1;rounded=0;dashed=1;dashPattern=8 8;" edge="1" parent="1">
          <mxGeometry width="50" height="50" relative="1" as="geometry">
            <mxPoint x="968" y="1487" as="sourcePoint" />
            <mxPoint x="528" y="1487" as="targetPoint" />
          </mxGeometry>
        </mxCell>
        <mxCell id="vybOab_Kj2c5safNkpu3-71" value="重定向到系统B原页面&lt;div&gt;&lt;span style=&quot;background-color: light-dark(#ffffff, var(--ge-dark-color, #121212)); color: light-dark(rgb(0, 0, 0), rgb(255, 255, 255));&quot;&gt;种B域 cookie（&lt;/span&gt;token&lt;span style=&quot;background-color: light-dark(#ffffff, var(--ge-dark-color, #121212)); color: light-dark(rgb(0, 0, 0), rgb(255, 255, 255));&quot;&gt;）&lt;/span&gt;&lt;/div&gt;" style="edgeLabel;html=1;align=center;verticalAlign=middle;resizable=0;points=[];" vertex="1" connectable="0" parent="vybOab_Kj2c5safNkpu3-70">
          <mxGeometry x="-0.3204" y="-1" relative="1" as="geometry">
            <mxPoint x="41" as="offset" />
          </mxGeometry>
        </mxCell>
        <mxCell id="vybOab_Kj2c5safNkpu3-72" value="" style="endArrow=classic;html=1;rounded=0;" edge="1" parent="1">
          <mxGeometry width="50" height="50" relative="1" as="geometry">
            <mxPoint x="1203" y="1435" as="sourcePoint" />
            <mxPoint x="1203" y="1458" as="targetPoint" />
            <Array as="points">
              <mxPoint x="1233" y="1435" />
              <mxPoint x="1233" y="1452" />
              <mxPoint x="1233" y="1458" />
              <mxPoint x="1230" y="1458" />
              <mxPoint x="1223" y="1458" />
            </Array>
          </mxGeometry>
        </mxCell>
        <mxCell id="vybOab_Kj2c5safNkpu3-73" value="校验 code 通过" style="edgeLabel;html=1;align=center;verticalAlign=middle;resizable=0;points=[];" vertex="1" connectable="0" parent="vybOab_Kj2c5safNkpu3-72">
          <mxGeometry x="-0.0168" y="-1" relative="1" as="geometry">
            <mxPoint x="48" as="offset" />
          </mxGeometry>
        </mxCell>
        <mxCell id="vybOab_Kj2c5safNkpu3-74" value="" style="endArrow=classic;html=1;rounded=0;" edge="1" parent="1">
          <mxGeometry width="50" height="50" relative="1" as="geometry">
            <mxPoint x="528" y="1547" as="sourcePoint" />
            <mxPoint x="960" y="1547" as="targetPoint" />
          </mxGeometry>
        </mxCell>
        <mxCell id="vybOab_Kj2c5safNkpu3-75" value="访问系统B，带 B 域 cookie（token）" style="edgeLabel;html=1;align=center;verticalAlign=middle;resizable=0;points=[];" vertex="1" connectable="0" parent="vybOab_Kj2c5safNkpu3-74">
          <mxGeometry x="-0.3204" y="-1" relative="1" as="geometry">
            <mxPoint x="179" y="-1" as="offset" />
          </mxGeometry>
        </mxCell>
        <mxCell id="vybOab_Kj2c5safNkpu3-76" value="" style="endArrow=classic;html=1;rounded=0;" edge="1" parent="1">
          <mxGeometry width="50" height="50" relative="1" as="geometry">
            <mxPoint x="968" y="1562" as="sourcePoint" />
            <mxPoint x="1182" y="1562" as="targetPoint" />
          </mxGeometry>
        </mxCell>
        <mxCell id="vybOab_Kj2c5safNkpu3-77" value="校验 token" style="edgeLabel;html=1;align=center;verticalAlign=middle;resizable=0;points=[];" vertex="1" connectable="0" parent="vybOab_Kj2c5safNkpu3-76">
          <mxGeometry x="-0.3204" y="-1" relative="1" as="geometry">
            <mxPoint x="49" y="-1" as="offset" />
          </mxGeometry>
        </mxCell>
        <mxCell id="vybOab_Kj2c5safNkpu3-78" value="" style="endArrow=classic;html=1;rounded=0;dashed=1;dashPattern=8 8;" edge="1" parent="1">
          <mxGeometry width="50" height="50" relative="1" as="geometry">
            <mxPoint x="1188" y="1597" as="sourcePoint" />
            <mxPoint x="970" y="1597" as="targetPoint" />
          </mxGeometry>
        </mxCell>
        <mxCell id="vybOab_Kj2c5safNkpu3-79" value="" style="endArrow=classic;html=1;rounded=0;" edge="1" parent="1">
          <mxGeometry width="50" height="50" relative="1" as="geometry">
            <mxPoint x="1203" y="1570" as="sourcePoint" />
            <mxPoint x="1203" y="1593" as="targetPoint" />
            <Array as="points">
              <mxPoint x="1233" y="1570" />
              <mxPoint x="1233" y="1587" />
              <mxPoint x="1233" y="1593" />
              <mxPoint x="1230" y="1593" />
              <mxPoint x="1223" y="1593" />
            </Array>
          </mxGeometry>
        </mxCell>
        <mxCell id="vybOab_Kj2c5safNkpu3-80" value="校验 token 通过" style="edgeLabel;html=1;align=center;verticalAlign=middle;resizable=0;points=[];" vertex="1" connectable="0" parent="vybOab_Kj2c5safNkpu3-79">
          <mxGeometry x="-0.0168" y="-1" relative="1" as="geometry">
            <mxPoint x="48" as="offset" />
          </mxGeometry>
        </mxCell>
        <mxCell id="vybOab_Kj2c5safNkpu3-81" value="" style="endArrow=classic;html=1;rounded=0;" edge="1" parent="1">
          <mxGeometry width="50" height="50" relative="1" as="geometry">
            <mxPoint x="976" y="1616" as="sourcePoint" />
            <mxPoint x="976" y="1656" as="targetPoint" />
            <Array as="points">
              <mxPoint x="996" y="1616" />
              <mxPoint x="996" y="1636" />
              <mxPoint x="996" y="1656" />
            </Array>
          </mxGeometry>
        </mxCell>
        <mxCell id="vybOab_Kj2c5safNkpu3-82" value="凭证有效，处理业务" style="edgeLabel;html=1;align=center;verticalAlign=middle;resizable=0;points=[];" vertex="1" connectable="0" parent="vybOab_Kj2c5safNkpu3-81">
          <mxGeometry x="-0.0168" y="-1" relative="1" as="geometry">
            <mxPoint x="58" as="offset" />
          </mxGeometry>
        </mxCell>
        <mxCell id="vybOab_Kj2c5safNkpu3-83" value="" style="endArrow=classic;html=1;rounded=0;dashed=1;dashPattern=8 8;" edge="1" parent="1">
          <mxGeometry width="50" height="50" relative="1" as="geometry">
            <mxPoint x="965" y="1669" as="sourcePoint" />
            <mxPoint x="535" y="1669" as="targetPoint" />
          </mxGeometry>
        </mxCell>
        <mxCell id="vybOab_Kj2c5safNkpu3-84" value="业务返回" style="edgeLabel;html=1;align=center;verticalAlign=middle;resizable=0;points=[];" vertex="1" connectable="0" parent="vybOab_Kj2c5safNkpu3-83">
          <mxGeometry x="-0.3204" y="-1" relative="1" as="geometry">
            <mxPoint x="43" as="offset" />
          </mxGeometry>
        </mxCell>
        <mxCell id="vybOab_Kj2c5safNkpu3-85" value="" style="endArrow=none;html=1;rounded=0;" edge="1" parent="1">
          <mxGeometry width="50" height="50" relative="1" as="geometry">
            <mxPoint x="528" y="1760" as="sourcePoint" />
            <mxPoint x="1188" y="1760" as="targetPoint" />
          </mxGeometry>
        </mxCell>
        <mxCell id="vybOab_Kj2c5safNkpu3-88" value="" style="endArrow=classic;html=1;rounded=0;dashed=1;dashPattern=8 8;" edge="1" parent="1">
          <mxGeometry width="50" height="50" relative="1" as="geometry">
            <mxPoint x="750" y="672" as="sourcePoint" />
            <mxPoint x="530" y="672" as="targetPoint" />
          </mxGeometry>
        </mxCell>
        <mxCell id="vybOab_Kj2c5safNkpu3-89" value="返回支付信息&lt;div&gt;（金额 / 币种 / 支付项等）&lt;/div&gt;" style="edgeLabel;html=1;align=center;verticalAlign=middle;resizable=0;points=[];" vertex="1" connectable="0" parent="vybOab_Kj2c5safNkpu3-88">
          <mxGeometry x="-0.3204" y="-1" relative="1" as="geometry">
            <mxPoint x="-35" as="offset" />
          </mxGeometry>
        </mxCell>
        <mxCell id="vybOab_Kj2c5safNkpu3-90" value="" style="endArrow=classic;html=1;rounded=0;" edge="1" parent="1">
          <mxGeometry width="50" height="50" relative="1" as="geometry">
            <mxPoint x="760" y="639" as="sourcePoint" />
            <mxPoint x="760" y="666" as="targetPoint" />
            <Array as="points">
              <mxPoint x="790" y="639" />
              <mxPoint x="790" y="656" />
              <mxPoint x="790" y="666" />
              <mxPoint x="780" y="666" />
            </Array>
          </mxGeometry>
        </mxCell>
        <mxCell id="vybOab_Kj2c5safNkpu3-91" value="查询支付信息" style="edgeLabel;html=1;align=center;verticalAlign=middle;resizable=0;points=[];" vertex="1" connectable="0" parent="vybOab_Kj2c5safNkpu3-90">
          <mxGeometry x="-0.0168" y="-1" relative="1" as="geometry">
            <mxPoint x="43" y="1" as="offset" />
          </mxGeometry>
        </mxCell>
      </root>
    </mxGraphModel>
  </diagram>
</mxfile>
